<?xml version="1.0" encoding="utf-8"?>
<!-- Generator: Adobe Illustrator 15.0.2, SVG Export Plug-In . SVG Version: 6.00 Build 0)  -->
<!DOCTYPE svg PUBLIC "-//W3C//DTD SVG 1.1//EN" "http://www.w3.org/Graphics/SVG/1.1/DTD/svg11.dtd">
<svg version="1.1" id="Layer_1" xmlns="http://www.w3.org/2000/svg" xmlns:xlink="http://www.w3.org/1999/xlink" x="0px" y="0px"
	 width="32px" height="32px" viewBox="0 0 32 32" enable-background="new 0 0 32 32" xml:space="preserve">
<g>
	<path d="M13.269,26.536C5.952,26.536,0,20.582,0,13.266C0,5.951,5.952,0,13.269,0c7.317,0,13.269,5.951,13.269,13.266
		C26.537,20.582,20.586,26.536,13.269,26.536z M13.269,2.081c-6.169,0-11.188,5.018-11.188,11.185
		c0,6.168,5.018,11.187,11.188,11.187c6.168,0,11.186-5.019,11.186-11.187C24.454,7.099,19.437,2.081,13.269,2.081z"/>
	<path d="M30.698,32c-0.289,0-0.575-0.122-0.781-0.356l-7.662-8.744c-0.379-0.433-0.336-1.09,0.097-1.469
		c0.432-0.379,1.09-0.338,1.469,0.097l7.662,8.743c0.379,0.435,0.335,1.09-0.097,1.469C31.188,31.913,30.942,32,30.698,32z"/>
</g>
</svg>
