<!-- Generator: Adobe Illustrator 18.0.0, SVG Export Plug-In  -->
<svg version="1.1"
	 xmlns="http://www.w3.org/2000/svg" xmlns:xlink="http://www.w3.org/1999/xlink" xmlns:a="http://ns.adobe.com/AdobeSVGViewerExtensions/3.0/"
	 x="0px" y="0px" width="468.1px" height="144.5px" viewBox="0 0 468.1 144.5" enable-background="new 0 0 468.1 144.5"
	 preserveAspectRatio="xMinYMin meet"
	 xml:space="preserve">
<defs>
</defs>
<g>
	<g>
		<path stroke="#000000" stroke-miterlimit="10" d="M143.5,105.5L142.2,87L139,39l-16.1,1.1l0.4,6.1c-1-1.1-2.3-2.1-3.8-3.1
			c-1.6-1-3.2-1.8-4.9-2.4c-1.7-0.6-3.5-1.1-5.4-1.4c-1.9-0.3-3.7-0.4-5.3-0.3c-4.5,0.3-8.8,1.3-12.8,3c-4,1.7-7.5,4.1-10.5,7.2
			c-3,3.1-5.2,6.9-6.8,11.5c-1.6,4.5-2.2,9.8-1.8,15.9c0.4,6.1,1.6,11.3,3.5,15.6c1.9,4.3,4.5,7.9,7.6,10.6
			c3.1,2.7,6.6,4.6,10.6,5.7c4,1.1,8.2,1.5,12.8,1.2c4.5-0.3,8.5-1.6,12.1-4c3.6-2.4,6.3-5.6,8.1-9.5l0.7,10.3L143.5,105.5z
			 M122.1,80.1c-0.2,2.4-0.9,4.7-1.9,6.8c-1,2.1-2.5,3.9-4.6,5.3c-2.1,1.4-4.8,2.3-8.1,2.5c-3.5,0.2-6.3-0.2-8.5-1.4
			c-2.2-1.2-3.9-2.7-5.2-4.7c-1.3-1.9-2.2-4.1-2.8-6.5c-0.6-2.4-0.9-4.7-1.1-6.8c-0.1-2.1-0.1-4.4,0.2-6.8c0.2-2.4,0.9-4.7,1.9-6.8
			c1-2.1,2.5-3.9,4.5-5.4c2-1.5,4.7-2.4,8.2-2.6c3.4-0.2,6.2,0.3,8.4,1.5c2.2,1.2,4,2.8,5.3,4.7c1.3,1.9,2.2,4.1,2.8,6.5
			c0.6,2.4,0.9,4.6,1.1,6.7C122.4,75.4,122.4,77.7,122.1,80.1z"/>
		<path stroke="#000000" stroke-miterlimit="10" d="M193.7,34.6l0.8,12.5c-0.3-1.6-0.9-3.2-2-4.8c-1-1.6-2.4-3.1-4.2-4.3
			c-1.8-1.3-3.9-2.3-6.4-3c-2.5-0.7-5.2-1-8.4-0.8c-3.7,0.2-7.2,1.2-10.5,2.9c-3.3,1.7-6.1,4-8.5,7c-2.4,3-4.2,6.8-5.4,11.2
			c-1.2,4.4-1.6,9.6-1.2,15.4c0.4,5.9,1.5,11,3.3,15.2c1.8,4.2,4.1,7.7,6.8,10.4c2.8,2.7,6,4.6,9.6,5.8c3.6,1.2,7.5,1.7,11.5,1.4
			c2.6-0.2,4.9-0.6,6.8-1.3c1.9-0.7,3.5-1.5,4.8-2.6c1.3-1.1,2.4-2.2,3.3-3.5c0.9-1.3,1.7-2.6,2.3-3.9l0.3,0.2l0.5,8.1
			c0.4,5.5-0.5,9.5-2.6,12c-2.1,2.6-5.6,4-10.3,4.3c-2.5,0.2-4.6,0.1-6.2-0.1c-1.6-0.3-2.8-0.7-3.7-1.3c-0.9-0.6-1.5-1.3-2-2.1
			c-0.4-0.8-0.8-1.6-1-2.5l-19.2,1.3c0.4,3.5,1.6,6.5,3.5,9c1.9,2.4,4.4,4.4,7.2,5.8c2.9,1.5,6.1,2.4,9.5,3
			c3.5,0.5,6.9,0.7,10.4,0.4c5.5-0.4,10.1-1.2,13.8-2.5c3.8-1.3,6.9-2.8,9.3-4.6c2.4-1.8,4.2-3.8,5.5-6c1.2-2.2,2.1-4.5,2.7-6.8
			c0.6-2.4,0.8-4.7,0.8-7c0-2.3-0.1-4.4-0.2-6.3l-3.1-45.4l-1.2-18.2l-5.9,0.4L193.7,34.6z M195.1,74.8c-0.3,2.3-0.9,4.5-1.9,6.4
			c-1,1.9-2.4,3.5-4.3,4.9c-1.9,1.3-4.3,2.1-7.3,2.3c-2.6,0.2-4.8-0.2-6.7-1.2c-1.9-1-3.4-2.4-4.7-4.1c-1.2-1.7-2.1-3.7-2.7-5.8
			c-0.6-2.2-1-4.3-1.1-6.5c-0.3-3.9-0.1-7.2,0.6-9.9c0.7-2.7,1.6-4.9,2.8-6.5c1.2-1.6,2.6-2.9,4.2-3.6c1.6-0.8,3.2-1.2,4.9-1.3
			c2.4-0.2,4.6,0.2,6.6,1.1c2,0.9,3.6,2.2,5,3.9c1.4,1.7,2.5,3.7,3.3,6.1c0.8,2.4,1.3,4.9,1.5,7.6C195.4,70.1,195.4,72.4,195.1,74.8
			z"/>
		<path stroke="#000000" stroke-miterlimit="10" d="M272.2,35.6c-3.3-2.5-6.8-4.1-10.6-4.9c-3.8-0.7-7.3-1-10.6-0.7
			c-4.9,0.3-9,1.3-12.4,2.8c-3.4,1.5-6.2,3.4-8.5,5.6c-2.3,2.2-4,4.7-5.3,7.3c-1.3,2.7-2.2,5.3-2.8,7.9c-0.6,2.6-0.9,5-1,7.2
			c-0.1,2.2-0.1,4,0,5.3c0.5,6.9,1.7,12.6,3.8,17.2c2,4.6,4.7,8.2,7.8,10.9c3.2,2.7,6.9,4.5,11,5.4c4.2,0.9,8.6,1.3,13.3,0.9
			c2.9-0.2,5.8-0.8,8.7-1.7c2.9-0.9,5.7-2.3,8.3-4.2c2.6-1.9,4.8-4.2,6.8-7.1c2-2.9,3.4-6.4,4.3-10.5l-18.2,1.2
			c-0.5,2.5-1.8,4.4-4,5.8c-2.1,1.4-4.4,2.1-6.9,2.3c-3.5,0.2-6.4-0.2-8.5-1.3c-2.1-1.1-3.8-2.5-5-4.2c-1.2-1.7-2-3.5-2.4-5.3
			c-0.5-1.8-0.8-3.4-0.9-4.6l46.1-3.1l-0.2-3.2c-0.5-7.7-2-13.8-4.4-18.5C278.3,41.7,275.5,38.1,272.2,35.6z M238.9,59.6
			c0.2-4.5,1.3-8,3.4-10.7c2.1-2.6,5.2-4.1,9.4-4.4c1.4-0.1,2.9,0,4.5,0.4c1.6,0.4,3,1,4.3,2c1.3,1,2.5,2.4,3.6,4.1
			c1.1,1.7,1.8,4,2.2,6.6L238.9,59.6z"/>
		<path stroke="#000000" stroke-miterlimit="10" d="M25.2,117.1l-2.4-35.4l26.5,25.8l-15.3,1l49.2,33.9l-21.4-28.1l11.1-0.7L51,77.3
			l0.1,0c4-1.3,7.1-3,9.4-5.1c2.3-2.1,4-4.5,5.2-7.1c1.1-2.6,1.8-5.3,2.1-8.1c0.2-2.8,0.3-5.5,0.1-8c-0.1-1.9-0.7-4.3-1.6-7.2
			c-0.9-2.8-2.5-5.6-4.7-8.2c-2.2-2.6-5.3-4.7-9.1-6.4c-3.8-1.7-8.8-2.3-14.8-1.9l-37,2.5L2,49.8l3.3,49.3l1.3,19.2L25.2,117.1z
			 M20.1,42.1l14.8-1c2.8-0.2,5,0.1,6.8,0.7c1.8,0.7,3.2,1.6,4.2,2.7c1.1,1.1,1.8,2.3,2.2,3.7c0.4,1.4,0.7,2.6,0.8,3.8
			c0.3,4.5-0.7,7.8-2.9,9.8c-2.3,2-5.9,3.2-10.9,3.5l-13.4,0.9L20.1,42.1z"/>
		<polygon stroke="#000000" stroke-miterlimit="10" points="446.4,5 447.3,25.9 453.4,64.3 461.9,64 464.9,25.2 464.1,4.3 		"/>
		<path stroke="#000000" stroke-miterlimit="10" d="M464.5,70.4c-0.9-0.8-1.9-1.4-3.1-1.9c-1.2-0.5-2.4-0.7-3.8-0.6
			c-2.6,0.1-4.8,1.1-6.6,3c-1.8,1.9-2.6,4.2-2.5,6.8c0.1,1.4,0.4,2.6,0.9,3.8c0.5,1.1,1.3,2.1,2.1,3c0.9,0.8,1.9,1.5,3.1,1.9
			c1.2,0.5,2.4,0.7,3.7,0.6c2.7-0.1,4.9-1.1,6.7-3.1c1.8-1.9,2.6-4.3,2.5-6.9c-0.1-1.3-0.3-2.5-0.9-3.6
			C466.1,72.2,465.4,71.2,464.5,70.4z"/>
	</g>
	<g>
		<path stroke="#000000" stroke-miterlimit="10" d="M397.2,21.5l0.7,9.8c0.4-0.9,1-2.1,1.8-3.5c0.8-1.4,1.9-2.7,3.3-4
			c1.4-1.3,3.1-2.4,5.1-3.4c2-1,4.4-1.5,7.3-1.7c2.9-0.2,5.7,0.1,8.3,0.7c2.6,0.7,4.9,1.8,6.8,3.4c1.9,1.6,3.5,3.5,4.8,5.9
			c1.3,2.4,2,5.2,2.2,8.5l1,14.1l2.3,34l-15.7,1.1l-2.9-43c-0.1-1.1-0.2-2.4-0.4-3.7c-0.2-1.3-0.7-2.6-1.4-3.7
			c-0.8-1.2-1.8-2.1-3.3-2.8c-1.4-0.7-3.4-1-5.9-0.8c-3.5,0.2-6.4,1.6-8.6,4.1c-2.2,2.5-3.1,6-2.8,10.6l2.8,41L386.7,89l-2.3-33.8
			l-1.1-15.9l-1.1-16.8l8-0.5L397.2,21.5z"/>
		<g>
			<path stroke="#000000" stroke-miterlimit="10" d="M313.5,51.7l22.3-51.1c-2.5-0.1-4.6-0.1-6.4,0c-2,0.1-4.4,0.5-7.3,1.1
				c-2.9,0.6-5.8,1.6-9,2.9c-3.1,1.4-6.2,3.3-9.2,5.6c-3,2.3-5.7,5.4-8,9c-2.3,3.7-4.1,8.1-5.3,13.3c-1.2,5.2-1.6,11.3-1.1,18.3
				c0.5,7,1.7,13,3.6,18c1.9,5,4.3,9.1,7.1,12.5c2.8,3.3,5.8,6,9.1,7.9c0.6,0.3,1.1,0.6,1.7,0.9l18-39.5L313.5,51.7z"/>
			<path stroke="#000000" stroke-miterlimit="10" d="M365.1,14.5c-1.2-1.4-2.5-2.7-3.8-3.9l-22.5,28.7l21.2-1.4l-45.8,53.8
				c1.6,0.7,3.3,1.3,4.9,1.8c3.3,1,6.4,1.5,9.3,1.7c2.9,0.2,5.4,0.2,7.4,0.1c2-0.1,4.4-0.5,7.3-1.1c2.9-0.6,5.9-1.6,9-2.9
				c3.1-1.4,6.2-3.3,9.2-5.6c3-2.3,5.7-5.4,8-9c2.3-3.7,4.1-8.1,5.3-13.3c1.2-5.2,1.6-11.3,1.1-18.3c-0.5-7-1.7-13-3.6-18
				C370.2,22,367.9,17.9,365.1,14.5z"/>
		</g>
	</g>
</g>
</svg>
